<svg xmlns="http://www.w3.org/2000/svg" viewBox="0 0 920 380" width="920" height="380" role="img" aria-label="Where the obvious play is right (control): what the written briefs recommend" font-family="system-ui, -apple-system, Segoe UI, Roboto, sans-serif">
<rect width="920" height="380" rx="14" fill="#ffffff" stroke="#d8ddd8"/>
<text x="24" y="34" font-size="18" font-weight="700" fill="#17201f">Where the obvious play is right (control): what the written briefs recommend</text>
<text x="24" y="54" font-size="12.5" fill="#5a6866">24 briefs per condition, 95% intervals.</text>
<line x1="56" y1="310.0" x2="900" y2="310.0" stroke="#e3e8e3"/>
<text x="48" y="314.0" font-size="11" text-anchor="end" fill="#5a6866">0%</text>
<line x1="56" y1="252.0" x2="900" y2="252.0" stroke="#e3e8e3"/>
<text x="48" y="256.0" font-size="11" text-anchor="end" fill="#5a6866">25%</text>
<line x1="56" y1="194.0" x2="900" y2="194.0" stroke="#e3e8e3"/>
<text x="48" y="198.0" font-size="11" text-anchor="end" fill="#5a6866">50%</text>
<line x1="56" y1="136.0" x2="900" y2="136.0" stroke="#e3e8e3"/>
<text x="48" y="140.0" font-size="11" text-anchor="end" fill="#5a6866">75%</text>
<line x1="56" y1="78.0" x2="900" y2="78.0" stroke="#e3e8e3"/>
<text x="48" y="82.0" font-size="11" text-anchor="end" fill="#5a6866">100%</text>
<text x="14" y="194" font-size="11" fill="#5a6866" transform="rotate(-90 14 194)" text-anchor="middle">share of deals</text>
<rect x="177.0" y="78.0" width="42.0" height="232.0" fill="#64748b" rx="3"><title>Plain model (no history): 100% (86% to 100%)</title></rect>
<line x1="198.0" y1="78.0" x2="198.0" y2="110.0" stroke="#17201f" stroke-width="1.4"/>
<line x1="194.0" y1="78.0" x2="202.0" y2="78.0" stroke="#17201f" stroke-width="1.4"/>
<line x1="194.0" y1="110.0" x2="202.0" y2="110.0" stroke="#17201f" stroke-width="1.4"/>
<text x="198.0" y="70.0" font-size="10.5" text-anchor="middle" fill="#17201f">100%</text>
<rect x="223.0" y="78.0" width="42.0" height="232.0" fill="#d97706" rx="3"><title>All deals pasted in: 100% (86% to 100%)</title></rect>
<line x1="244.0" y1="78.0" x2="244.0" y2="110.0" stroke="#17201f" stroke-width="1.4"/>
<line x1="240.0" y1="78.0" x2="248.0" y2="78.0" stroke="#17201f" stroke-width="1.4"/>
<line x1="240.0" y1="110.0" x2="248.0" y2="110.0" stroke="#17201f" stroke-width="1.4"/>
<text x="244.0" y="70.0" font-size="10.5" text-anchor="middle" fill="#17201f">100%</text>
<rect x="269.0" y="87.7" width="42.0" height="222.3" fill="#0f766e" rx="3"><title>Deal Intelligence: 96% (80% to 99%)</title></rect>
<line x1="290.0" y1="79.7" x2="290.0" y2="125.0" stroke="#17201f" stroke-width="1.4"/>
<line x1="286.0" y1="79.7" x2="294.0" y2="79.7" stroke="#17201f" stroke-width="1.4"/>
<line x1="286.0" y1="125.0" x2="294.0" y2="125.0" stroke="#17201f" stroke-width="1.4"/>
<text x="290.0" y="71.7" font-size="10.5" text-anchor="middle" fill="#17201f">96%</text>
<rect x="315.0" y="87.7" width="42.0" height="222.3" fill="#2563eb" rx="3"><title>Deal Intelligence + lessons: 96% (80% to 99%)</title></rect>
<line x1="336.0" y1="79.7" x2="336.0" y2="125.0" stroke="#17201f" stroke-width="1.4"/>
<line x1="332.0" y1="79.7" x2="340.0" y2="79.7" stroke="#17201f" stroke-width="1.4"/>
<line x1="332.0" y1="125.0" x2="340.0" y2="125.0" stroke="#17201f" stroke-width="1.4"/>
<text x="336.0" y="71.7" font-size="10.5" text-anchor="middle" fill="#17201f">96%</text>
<text x="267.0" y="330" font-size="12" text-anchor="middle" fill="#17201f">Good play recommended</text>
<rect x="599.0" y="310.0" width="42.0" height="0.0" fill="#64748b" rx="3"><title>Plain model (no history): 0% (0% to 14%)</title></rect>
<line x1="620.0" y1="278.0" x2="620.0" y2="310.0" stroke="#17201f" stroke-width="1.4"/>
<line x1="616.0" y1="278.0" x2="624.0" y2="278.0" stroke="#17201f" stroke-width="1.4"/>
<line x1="616.0" y1="310.0" x2="624.0" y2="310.0" stroke="#17201f" stroke-width="1.4"/>
<text x="620.0" y="270.0" font-size="10.5" text-anchor="middle" fill="#17201f">0%</text>
<rect x="645.0" y="281.0" width="42.0" height="29.0" fill="#d97706" rx="3"><title>All deals pasted in: 12% (4% to 31%)</title></rect>
<line x1="666.0" y1="238.1" x2="666.0" y2="299.9" stroke="#17201f" stroke-width="1.4"/>
<line x1="662.0" y1="238.1" x2="670.0" y2="238.1" stroke="#17201f" stroke-width="1.4"/>
<line x1="662.0" y1="299.9" x2="670.0" y2="299.9" stroke="#17201f" stroke-width="1.4"/>
<text x="666.0" y="230.1" font-size="10.5" text-anchor="middle" fill="#17201f">12%</text>
<rect x="691.0" y="310.0" width="42.0" height="0.0" fill="#0f766e" rx="3"><title>Deal Intelligence: 0% (0% to 14%)</title></rect>
<line x1="712.0" y1="278.0" x2="712.0" y2="310.0" stroke="#17201f" stroke-width="1.4"/>
<line x1="708.0" y1="278.0" x2="716.0" y2="278.0" stroke="#17201f" stroke-width="1.4"/>
<line x1="708.0" y1="310.0" x2="716.0" y2="310.0" stroke="#17201f" stroke-width="1.4"/>
<text x="712.0" y="270.0" font-size="10.5" text-anchor="middle" fill="#17201f">0%</text>
<rect x="737.0" y="310.0" width="42.0" height="0.0" fill="#2563eb" rx="3"><title>Deal Intelligence + lessons: 0% (0% to 14%)</title></rect>
<line x1="758.0" y1="278.0" x2="758.0" y2="310.0" stroke="#17201f" stroke-width="1.4"/>
<line x1="754.0" y1="278.0" x2="762.0" y2="278.0" stroke="#17201f" stroke-width="1.4"/>
<line x1="754.0" y1="310.0" x2="762.0" y2="310.0" stroke="#17201f" stroke-width="1.4"/>
<text x="758.0" y="270.0" font-size="10.5" text-anchor="middle" fill="#17201f">0%</text>
<text x="689.0" y="330" font-size="12" text-anchor="middle" fill="#17201f">Trap recommended</text>
<rect x="56" y="350" width="12" height="12" rx="3" fill="#64748b"/>
<text x="74" y="360" font-size="12" fill="#17201f">Plain model (no history)</text>
<rect x="256.8" y="350" width="12" height="12" rx="3" fill="#d97706"/>
<text x="274.8" y="360" font-size="12" fill="#17201f">All deals pasted in</text>
<rect x="421.6" y="350" width="12" height="12" rx="3" fill="#0f766e"/>
<text x="439.6" y="360" font-size="12" fill="#17201f">Deal Intelligence</text>
<rect x="572.0" y="350" width="12" height="12" rx="3" fill="#2563eb"/>
<text x="590.0" y="360" font-size="12" fill="#17201f">Deal Intelligence + lessons</text>
</svg>